<?xml version="1.0" encoding="UTF-8" standalone="no"?>
<!-- Created with Inkscape (http://www.inkscape.org/) -->

<svg
   xmlns:dc="http://purl.org/dc/elements/1.1/"
   xmlns:cc="http://creativecommons.org/ns#"
   xmlns:rdf="http://www.w3.org/1999/02/22-rdf-syntax-ns#"
   xmlns:svg="http://www.w3.org/2000/svg"
   xmlns="http://www.w3.org/2000/svg"
   xmlns:sodipodi="http://sodipodi.sourceforge.net/DTD/sodipodi-0.dtd"
   xmlns:inkscape="http://www.inkscape.org/namespaces/inkscape"
   version="1.1"
   id="svg850"
   xml:space="preserve"
   width="394.62317"
   height="394.62317"
   viewBox="0 0 394.62317 394.62317"
   sodipodi:docname="interp_abstract.svg"
   inkscape:version="0.92.2 5c3e80d, 2017-08-06"><metadata
     id="metadata856"><rdf:RDF><cc:Work
         rdf:about=""><dc:format>image/svg+xml</dc:format><dc:type
           rdf:resource="http://purl.org/dc/dcmitype/StillImage" /><dc:title></dc:title></cc:Work></rdf:RDF></metadata><defs
     id="defs854"><clipPath
       clipPathUnits="userSpaceOnUse"
       id="clipPath918"><path
         d="M 0,0 H 296 V 296 H 0 Z"
         id="path916"
         inkscape:connector-curvature="0" /></clipPath></defs><sodipodi:namedview
     pagecolor="#ffffff"
     bordercolor="#666666"
     borderopacity="1"
     objecttolerance="10"
     gridtolerance="10"
     guidetolerance="10"
     inkscape:pageopacity="0"
     inkscape:pageshadow="2"
     inkscape:window-width="1920"
     inkscape:window-height="1016"
     id="namedview852"
     showgrid="false"
     inkscape:zoom="2.0247164"
     inkscape:cx="72.849709"
     inkscape:cy="197.31158"
     inkscape:window-x="0"
     inkscape:window-y="27"
     inkscape:window-maximized="1"
     inkscape:current-layer="g858" /><g
     id="g858"
     inkscape:groupmode="layer"
     inkscape:label="interp_abstract"
     transform="matrix(1.3333333,0,0,1.3333333,0,1.0532246e-5)"><g
       id="g860"><g
         id="g862"><path
           d="m -29.316,20.156 c 157.5,37.5 305.355,144.645 305.355,409.285"
           style="fill:none;stroke:#000000;stroke-width:2.7354331;stroke-linecap:butt;stroke-linejoin:miter;stroke-miterlimit:4;stroke-dasharray:none;stroke-opacity:1"
           id="path864"
           inkscape:connector-curvature="0" /></g><g
         id="g866"><path
           d="M 29.055,29.055 H 108.34 V 108.34 H 29.055 Z"
           style="fill:none;stroke:#000000;stroke-width:1.41732299;stroke-linecap:butt;stroke-linejoin:miter;stroke-miterlimit:4;stroke-dasharray:none;stroke-opacity:1"
           id="path868"
           inkscape:connector-curvature="0" /></g><g
         id="g870"><path
           d="m 108.34,29.055 h 79.285 V 108.34 H 108.34 Z"
           style="fill:none;stroke:#000000;stroke-width:1.41732299;stroke-linecap:butt;stroke-linejoin:miter;stroke-miterlimit:4;stroke-dasharray:none;stroke-opacity:1"
           id="path872"
           inkscape:connector-curvature="0" /></g><g
         id="g874"><path
           d="m 29.055,108.34 h 79.285 v 79.285 H 29.055 Z"
           style="fill:none;stroke:#000000;stroke-width:1.41732299;stroke-linecap:butt;stroke-linejoin:miter;stroke-miterlimit:4;stroke-dasharray:none;stroke-opacity:1"
           id="path876"
           inkscape:connector-curvature="0" /></g><g
         id="g878"><path
           d="m 108.34,108.34 h 79.285 v 79.285 H 108.34 Z"
           style="fill:none;stroke:#000000;stroke-width:1.41732299;stroke-linecap:butt;stroke-linejoin:miter;stroke-miterlimit:4;stroke-dasharray:none;stroke-opacity:1"
           id="path880"
           inkscape:connector-curvature="0" /></g><g
         id="g882"><path
           d="m 187.625,29.055 h 79.289 v 79.285 h -79.289 z"
           style="fill:none;stroke:#000000;stroke-width:1.41732299;stroke-linecap:butt;stroke-linejoin:miter;stroke-miterlimit:4;stroke-dasharray:none;stroke-opacity:1"
           id="path884"
           inkscape:connector-curvature="0" /></g><g
         id="g886"><path
           d="m 187.625,108.34 h 79.289 v 79.285 h -79.289 z"
           style="fill:none;stroke:#000000;stroke-width:1.41732299;stroke-linecap:butt;stroke-linejoin:miter;stroke-miterlimit:4;stroke-dasharray:none;stroke-opacity:1"
           id="path888"
           inkscape:connector-curvature="0" /></g><g
         id="g890"><path
           d="m 29.055,187.625 h 79.285 v 79.289 H 29.055 Z"
           style="fill:none;stroke:#000000;stroke-width:1.41732299;stroke-linecap:butt;stroke-linejoin:miter;stroke-miterlimit:4;stroke-dasharray:none;stroke-opacity:1"
           id="path892"
           inkscape:connector-curvature="0" /></g><g
         id="g894"><path
           d="m 108.34,187.625 h 79.285 v 79.289 H 108.34 Z"
           style="fill:none;stroke:#000000;stroke-width:1.41732299;stroke-linecap:butt;stroke-linejoin:miter;stroke-miterlimit:4;stroke-dasharray:none;stroke-opacity:1"
           id="path896"
           inkscape:connector-curvature="0" /></g><g
         id="g898"><path
           d="m 187.625,187.625 h 79.289 v 79.289 h -79.289 z"
           style="fill:none;stroke:#000000;stroke-width:1.41732299;stroke-linecap:butt;stroke-linejoin:miter;stroke-miterlimit:4;stroke-dasharray:none;stroke-opacity:1"
           id="path900"
           inkscape:connector-curvature="0" /></g><path
         d="m 230.809,229.844 c 0,1.937 -1.567,3.504 -3.504,3.504 -1.934,0 -3.504,-1.567 -3.504,-3.504 0,-1.934 1.57,-3.504 3.504,-3.504 1.937,0 3.504,1.57 3.504,3.504 z"
         style="fill:#0000ff;fill-opacity:1;fill-rule:nonzero;stroke:none"
         id="path902"
         inkscape:connector-curvature="0" /><path
         d="m 231,150.297 c 0,1.933 -1.57,3.504 -3.504,3.504 -1.937,0 -3.504,-1.571 -3.504,-3.504 0,-1.938 1.567,-3.504 3.504,-3.504 1.934,0 3.504,1.566 3.504,3.504 z"
         style="fill:#0000ff;fill-opacity:1;fill-rule:nonzero;stroke:none"
         id="path904"
         inkscape:connector-curvature="0" /><path
         d="m 151.605,150.754 c 0,1.934 -1.566,3.504 -3.503,3.504 -1.934,0 -3.504,-1.57 -3.504,-3.504 0,-1.938 1.57,-3.504 3.504,-3.504 1.937,0 3.503,1.566 3.503,3.504 z"
         style="fill:#0000ff;fill-opacity:1;fill-rule:nonzero;stroke:none"
         id="path906"
         inkscape:connector-curvature="0" /><path
         d="m 151.652,71.219 c 0,1.933 -1.57,3.504 -3.504,3.504 -1.933,0 -3.503,-1.571 -3.503,-3.504 0,-1.938 1.57,-3.504 3.503,-3.504 1.934,0 3.504,1.566 3.504,3.504 z"
         style="fill:#0000ff;fill-opacity:1;fill-rule:nonzero;stroke:none"
         id="path908"
         inkscape:connector-curvature="0" /><path
         d="m 72.438,71.395 c 0,1.937 -1.571,3.503 -3.504,3.503 -1.934,0 -3.504,-1.566 -3.504,-3.503 0,-1.934 1.57,-3.504 3.504,-3.504 1.933,0 3.504,1.57 3.504,3.504 z"
         style="fill:#0000ff;fill-opacity:1;fill-rule:nonzero;stroke:none"
         id="path910"
         inkscape:connector-curvature="0" /><g
         id="g912"><g
           id="g914" /><g
           id="g932"><g
             clip-path="url(#clipPath918)"
             id="g930"
             style="opacity:0.98999999"><g
               id="g928"><path
                 d="m 151.719,229.922 c 0,1.937 -1.567,3.504 -3.504,3.504 -1.934,0 -3.504,-1.567 -3.504,-3.504 0,-1.934 1.57,-3.504 3.504,-3.504 1.937,0 3.504,1.57 3.504,3.504 z"
                 style="fill:#0000ff;fill-opacity:1;fill-rule:nonzero;stroke:none"
                 id="path920"
                 inkscape:connector-curvature="0" /><path
                 d="m 231.004,71.152 c 0,1.934 -1.566,3.504 -3.504,3.504 -1.934,0 -3.504,-1.57 -3.504,-3.504 0,-1.937 1.57,-3.504 3.504,-3.504 1.938,0 3.504,1.567 3.504,3.504 z"
                 style="fill:#000000;fill-opacity:1;fill-rule:nonzero;stroke:none"
                 id="path922"
                 inkscape:connector-curvature="0" /><path
                 d="m 72.422,150.484 c 0,1.934 -1.57,3.504 -3.504,3.504 -1.938,0 -3.504,-1.57 -3.504,-3.504 0,-1.933 1.566,-3.504 3.504,-3.504 1.934,0 3.504,1.571 3.504,3.504 z"
                 style="fill:#000000;fill-opacity:1;fill-rule:nonzero;stroke:none"
                 id="path924"
                 inkscape:connector-curvature="0" /><path
                 d="m 151.719,229.922 c 0,1.937 -1.567,3.504 -3.504,3.504 -1.934,0 -3.504,-1.567 -3.504,-3.504 0,-1.934 1.57,-3.504 3.504,-3.504 1.937,0 3.504,1.57 3.504,3.504 z"
                 style="fill:#000000;fill-opacity:1;fill-rule:nonzero;stroke:none"
                 id="path926"
                 inkscape:connector-curvature="0" /></g></g></g></g><g
         id="g934"><path
           d="m 74.668,55.582 c 0,1.938 -1.57,3.504 -3.504,3.504 -1.937,0 -3.504,-1.566 -3.504,-3.504 0,-1.934 1.567,-3.504 3.504,-3.504 1.934,0 3.504,1.57 3.504,3.504 z"
           style="fill:#ff0000;fill-opacity:1;fill-rule:nonzero;stroke:#fa0000;stroke-width:3.60283494;stroke-linecap:butt;stroke-linejoin:miter;stroke-miterlimit:4;stroke-dasharray:none;stroke-opacity:1"
           id="path936"
           inkscape:connector-curvature="0" /></g><g
         id="g938"><path
           d="m 133.863,91.477 c 0,1.933 -1.57,3.503 -3.504,3.503 -1.933,0 -3.504,-1.57 -3.504,-3.503 0,-1.934 1.571,-3.504 3.504,-3.504 1.934,0 3.504,1.57 3.504,3.504 z"
           style="fill:#ff0000;fill-opacity:1;fill-rule:nonzero;stroke:#fa0000;stroke-width:3.60283494;stroke-linecap:butt;stroke-linejoin:miter;stroke-miterlimit:4;stroke-dasharray:none;stroke-opacity:1"
           id="path940"
           inkscape:connector-curvature="0" /></g><g
         id="g942"><path
           d="m 174.395,127.086 c 0,1.934 -1.567,3.504 -3.504,3.504 -1.934,0 -3.504,-1.57 -3.504,-3.504 0,-1.938 1.57,-3.504 3.504,-3.504 1.937,0 3.504,1.566 3.504,3.504 z"
           style="fill:#ff0000;fill-opacity:1;fill-rule:nonzero;stroke:#fa0000;stroke-width:3.60283494;stroke-linecap:butt;stroke-linejoin:miter;stroke-miterlimit:4;stroke-dasharray:none;stroke-opacity:1"
           id="path944"
           inkscape:connector-curvature="0" /></g><g
         id="g946"><path
           d="m 206.973,166.859 c 0,1.934 -1.571,3.504 -3.504,3.504 -1.934,0 -3.504,-1.57 -3.504,-3.504 0,-1.937 1.57,-3.504 3.504,-3.504 1.933,0 3.504,1.567 3.504,3.504 z"
           style="fill:#ff0000;fill-opacity:1;fill-rule:nonzero;stroke:#fa0000;stroke-width:3.60283494;stroke-linecap:butt;stroke-linejoin:miter;stroke-miterlimit:4;stroke-dasharray:none;stroke-opacity:1"
           id="path948"
           inkscape:connector-curvature="0" /></g><g
         id="g950"><path
           d="m 240.309,225.574 c 0,1.934 -1.571,3.504 -3.504,3.504 -1.938,0 -3.504,-1.57 -3.504,-3.504 0,-1.933 1.566,-3.504 3.504,-3.504 1.933,0 3.504,1.571 3.504,3.504 z"
           style="fill:#ff0000;fill-opacity:1;fill-rule:nonzero;stroke:#fa0000;stroke-width:3.60283494;stroke-linecap:butt;stroke-linejoin:miter;stroke-miterlimit:4;stroke-dasharray:none;stroke-opacity:1"
           id="path952"
           inkscape:connector-curvature="0" /></g></g></g></svg>